<svg xmlns="http://www.w3.org/2000/svg" viewBox="0 0 52.48 52.48"><defs><style>.cls-1{fill:#6d25c5;}</style></defs><g id="Camada_2" data-name="Camada 2"><g id="_404" data-name="404"><path class="cls-1" d="M26.26,52.48A26.24,26.24,0,1,1,52.48,26.42,26.21,26.21,0,0,1,26.26,52.48Zm-.07-36.24c1.81,0,3.62-.07,5.43-.23.46,0,1.08.11,1.34-.2s0-.91-.13-1.38a32.18,32.18,0,0,0-2.92-9.12,8.47,8.47,0,0,0-2.43-3,2.74,2.74,0,0,0-3.44,0,7.31,7.31,0,0,0-2,2.3A31.86,31.86,0,0,0,18.52,15.4c-.06.34.1.39.38.42A63.37,63.37,0,0,0,26.19,16.24Zm.07,20a64,64,0,0,0-7.34.42c-.35,0-.45.15-.39.51a38,38,0,0,0,2.34,8.42,12.18,12.18,0,0,0,2.7,4.23,2.92,2.92,0,0,0,4.36,0,9.32,9.32,0,0,0,2-2.76A35.26,35.26,0,0,0,33.05,37c.06-.37-.16-.36-.4-.38A53.31,53.31,0,0,0,26.26,36.25Zm-.5-9.18H18.17c-.39,0-.52.09-.51.5.05,2.35.22,4.69.49,7,0,.38.14.49.55.44a63.43,63.43,0,0,1,14.18-.1c.4,0,.48-.09.52-.45.26-2.24.4-4.5.47-6.76,0-.5-.09-.67-.63-.67C30.75,27.08,28.25,27.06,25.76,27.07Zm0-1.67h0c2.53,0,5.06,0,7.59,0,.4,0,.57-.09.56-.54-.06-2.08-.18-4.15-.41-6.22-.12-1.14-.12-1.14-1.27-1l-.27,0a63.4,63.4,0,0,1-13.21-.21c-.4-.05-.53.05-.57.45-.27,2.32-.44,4.64-.49,7,0,.42.1.55.54.54C20.71,25.39,23.22,25.4,25.73,25.4ZM11.66,27.06c-1.29,0-2.58,0-3.87,0-.31,0-.48,0-.47.44a31.83,31.83,0,0,0,1.76,9.31c.11.29.23.33.52.23a37.68,37.68,0,0,1,6.56-1.63c.32-.06.41-.17.36-.5a70.21,70.21,0,0,1-.52-7.4c0-.35-.11-.46-.46-.45C14.25,27.08,13,27.07,11.66,27.06Zm0-1.65c1.24,0,2.48,0,3.71,0,.48,0,.66-.1.66-.61a62.75,62.75,0,0,1,.5-7.24c.05-.34-.07-.43-.37-.48a39.25,39.25,0,0,1-6.57-1.65c-.29-.1-.4,0-.5.26A31.17,31.17,0,0,0,7.33,25c0,.36.1.46.45.45C9.07,25.4,10.36,25.41,11.65,25.41Zm28.22,1.66c-1.26,0-2.51,0-3.77,0-.43,0-.57.1-.58.56a54.91,54.91,0,0,1-.48,6.9c-.07.55.07.71.59.78a40.05,40.05,0,0,1,6,1.33c.78.24.77.24,1-.56a31.82,31.82,0,0,0,1.51-8.48c0-.47-.13-.54-.53-.53C42.41,27.08,41.14,27.07,39.87,27.07Zm0-1.66c1.31,0,2.62,0,3.92,0,.29,0,.48,0,.47-.4a31.73,31.73,0,0,0-1.66-9c-.12-.37-.3-.36-.6-.26a38.43,38.43,0,0,1-6.54,1.47c-.36.05-.45.19-.4.53a59.29,59.29,0,0,1,.5,7.17c0,.43.17.5.55.49C37.32,25.4,38.58,25.41,39.83,25.41ZM30.07,50.07a11.1,11.1,0,0,0,3.11-1.31,21.68,21.68,0,0,0,8.49-10c.17-.37-.06-.41-.31-.49a42.09,42.09,0,0,0-5.86-1.33c-.77-.12-.76-.12-.89.65a37.77,37.77,0,0,1-2.56,9A21.84,21.84,0,0,1,30.07,50.07ZM30,2.41a18.14,18.14,0,0,1,1.86,3.14,37.47,37.47,0,0,1,2.77,9.62c.07.42.22.48.6.42a45.84,45.84,0,0,0,6.12-1.37c.32-.1.43-.21.28-.55a22.78,22.78,0,0,0-6.44-8.54A13.76,13.76,0,0,0,30,2.41ZM21.54,50.17a1.68,1.68,0,0,0-.1-.25,18.88,18.88,0,0,1-2.65-5.07,41.29,41.29,0,0,1-1.88-7.33c0-.29-.05-.57-.49-.5a40.16,40.16,0,0,0-6.2,1.55c-.31.1-.34.23-.21.5a22.13,22.13,0,0,0,7.19,9A15.18,15.18,0,0,0,21.54,50.17ZM21.6,2.31a13.51,13.51,0,0,0-3.22,1.41A21.5,21.5,0,0,0,10,13.41c-.18.39,0,.45.31.54a39.08,39.08,0,0,0,5.94,1.48c.44.08.58,0,.66-.44C17.71,10.54,18.8,6.19,21.6,2.31ZM48.35,27.07c-.68,0-1.36,0-2,0-.33,0-.43.11-.44.43A32.29,32.29,0,0,1,44.12,37c-.12.34,0,.47.28.59a17,17,0,0,1,2.46,1.2c.28.17.42.16.59-.13A24.8,24.8,0,0,0,50.8,27.51c0-.36-.11-.46-.46-.45C49.68,27.08,49,27.07,48.35,27.07Zm0-1.66c.69,0,1.37,0,2,0,.34,0,.43-.12.41-.44A24.76,24.76,0,0,0,47.45,13.8c-.17-.29-.31-.3-.59-.14a15.12,15.12,0,0,1-2.46,1.2c-.36.14-.38.31-.27.64A31.88,31.88,0,0,1,45.86,25c0,.37.17.44.49.43C47,25.39,47.68,25.41,48.34,25.41ZM3.69,27.07c-.5,0-1,0-1.5,0s-.53.14-.51.55A24.81,24.81,0,0,0,4.93,38.52c.21.38.38.53.81.25A9.52,9.52,0,0,1,7.26,38c.34-.15.4-.29.27-.64a28.76,28.76,0,0,1-1.16-4.08,33.6,33.6,0,0,1-.71-5.75c0-.33-.1-.47-.46-.45S4.19,27.07,3.69,27.07Zm0-1.66a14,14,0,0,1,1.45,0c.45,0,.57-.14.59-.57a31.93,31.93,0,0,1,1.87-9.77c.1-.28.07-.41-.21-.54a17.39,17.39,0,0,1-1.77-.91c-.29-.16-.4-.08-.54.17A24.67,24.67,0,0,0,1.68,25c0,.32.1.4.4.39C2.6,25.4,3.12,25.41,3.64,25.41ZM36.73,48.27c.25.14.42,0,.58-.08a24.65,24.65,0,0,0,8.77-7.42c.22-.3.14-.42-.13-.57-.7-.37-1.41-.7-2.12-1-.38-.18-.52-.06-.67.29A25.26,25.26,0,0,1,40,44.84,22.83,22.83,0,0,1,36.73,48.27ZM36.62,4.14a19.36,19.36,0,0,1,2.16,2.07,25.58,25.58,0,0,1,4.39,6.85c.16.38.32.44.67.26.64-.33,1.28-.64,1.93-.94.43-.2.54-.38.21-.81a24.92,24.92,0,0,0-8.79-7.33A.63.63,0,0,0,36.62,4.14Zm-23.14,43c-.48-.55-1-1.06-1.41-1.61a24.76,24.76,0,0,1-3.51-5.64c-.2-.44-.39-.53-.8-.28S7,40,6.57,40.18s-.36.34-.13.64A24.79,24.79,0,0,0,13,47C13.13,47,13.24,47.19,13.48,47.09ZM13.25,5.54c-.16-.1-.24,0-.33,0C12.28,6,11.62,6.48,11,7a25,25,0,0,0-4.56,4.69c-.25.33-.21.51.16.68s.85.4,1.25.63.5.14.66-.23A25.39,25.39,0,0,1,13,5.9C13.13,5.8,13.26,5.72,13.25,5.54Z"/></g></g></svg>