<svg width="88" height="50" viewBox="0 0 88 50" fill="none" xmlns="http://www.w3.org/2000/svg">
<path d="M21.1893 12.0907C10.7449 18.1902 1.92979 23.5795 1.59556 24.0809C0.927119 25.1253 0.467563 34.776 0.968897 37.9929C1.51201 41.8364 0.634675 41.544 22.9022 45.4711C33.8062 47.4347 43.3733 49.0222 44.1671 49.0222C45.2533 49.0222 50.1831 46.3484 66.184 37.032C83.8142 26.7547 86.8222 24.8747 86.8222 24.0809C86.8222 23.4124 86.5716 23.12 86.0285 23.12C85.5689 23.12 76.5031 28.1333 65.8498 34.2329C55.1965 40.3324 46.0471 45.5129 45.4622 45.7635C44.6685 46.056 39.6969 45.3458 24.7822 42.7138C13.9618 40.8338 4.89601 39.0791 4.64534 38.8702C4.26934 38.5778 4.10223 36.9067 4.10223 33.0631C4.10223 28.6764 4.22756 27.632 4.7289 27.4649C5.06312 27.2978 14.0036 28.7182 24.5316 30.5982C35.1013 32.4782 44.0836 33.9822 44.5431 33.9822C44.9609 33.9822 53.1076 29.4702 62.6329 23.9138C72.1582 18.3991 81.3911 13.0098 83.1876 11.9653C84.9422 10.9209 86.6133 9.7511 86.8222 9.33332C87.7831 7.53688 87.24 7.41154 64.5129 4.1111C52.6062 2.39821 42.2453 0.977768 41.5351 0.977768C40.5742 0.977768 35.2267 3.90221 21.1893 12.0907ZM36.8142 19.4018C46.3396 20.9475 49.9742 21.6995 49.6818 22.0338C49.4311 22.2844 48.2196 23.0364 46.9662 23.7049L44.6685 24.9582L31.1742 22.744C23.7796 21.5324 17.6382 20.488 17.5547 20.4044C17.304 20.1955 22.192 17.3547 22.9022 17.3129C23.2365 17.2711 29.5031 18.232 36.8142 19.4018Z" fill="#7001D7"/>
</svg>
