<svg width="67" height="67" viewBox="0 0 67 67" fill="none" xmlns="http://www.w3.org/2000/svg">
<path d="M22.2306 7.45039C20.2876 8.03999 18.8136 9.59439 18.2776 11.591C18.1704 11.9528 18.09 12.4486 18.09 12.6898V13.1186L12.1002 13.1588C5.6012 13.2124 5.762 13.199 4.087 14.0164C2.9212 14.5792 1.5142 16.0264 0.8844 17.286C-0.0402003 19.1888 -0.0134004 18.3714 0.0267996 37.0242L0.0669996 53.801L0.4154 54.6854C0.603 55.1812 0.9246 55.8646 1.1256 56.213C1.6616 57.1242 2.9614 58.3302 4.0066 58.8796C5.829 59.831 3.5644 59.764 33.567 59.764C63.2748 59.764 61.2246 59.8176 62.9264 58.9466C64.5076 58.156 66.0218 56.347 66.6382 54.5514L66.933 53.667L66.9732 36.8902C67.0134 18.3848 67.0402 19.095 66.1692 17.3128C65.593 16.1336 64.0386 14.5658 62.913 14.0164C61.238 13.199 61.3988 13.2124 54.9132 13.1588L48.9234 13.1186L48.843 12.6496C48.8028 12.395 48.7492 11.993 48.709 11.7384C48.6688 11.4838 48.4276 10.854 48.1596 10.3314C47.4494 8.92439 46.23 7.90599 44.6354 7.42359C43.7242 7.14219 23.1418 7.16899 22.2306 7.45039ZM44.5416 10.9076C45.3188 11.4972 45.56 12.1538 45.56 13.735C45.56 15.2894 45.7744 15.8388 46.5114 16.2408C46.9268 16.4686 47.4226 16.482 53.5464 16.482C60.8896 16.482 60.9164 16.482 62.109 17.3932C62.5914 17.755 62.913 18.157 63.248 18.8136L63.717 19.7382V36.3006C63.717 51.925 63.7036 52.9032 63.4758 53.5598C62.98 54.9802 61.841 56.0388 60.4474 56.3738C59.3486 56.6284 7.6514 56.6284 6.5526 56.3738C5.1724 56.0388 4.0066 54.9668 3.551 53.6134C3.3634 53.0506 3.35 51.1612 3.3768 36.2336L3.417 19.497L3.752 18.8538C4.1942 17.9694 5.1456 17.1118 6.0702 16.7634C6.8206 16.4954 7.0216 16.482 13.4804 16.482C20.7164 16.482 20.5958 16.4954 21.1452 15.7182C21.3596 15.41 21.4132 15.0482 21.4668 13.7886C21.5204 12.4084 21.5606 12.1672 21.8822 11.6312C22.1234 11.2158 22.4182 10.921 22.8068 10.7334C23.383 10.452 23.4098 10.452 33.7144 10.4788L44.0458 10.519L44.5416 10.9076Z" fill="#7001D7"/>
<path d="M55.1276 20.9844C53.9484 21.4132 53.1578 22.579 53.1578 23.852C53.1578 25.1786 53.7206 26.0764 54.873 26.6124C56.9634 27.604 59.228 26.1166 59.228 23.785C59.228 23.182 58.826 22.2038 58.3838 21.7348C57.6468 20.9308 56.1594 20.5958 55.1276 20.9844Z" fill="#7001D7"/>
<path d="M30.753 21.105C23.7984 22.4048 18.559 28.1266 17.9694 35.0946C17.688 38.4178 18.4652 41.7946 20.1402 44.5416C24.4014 51.5364 33.0712 54.0824 40.3742 50.5046C43.3356 49.0574 45.9352 46.498 47.3958 43.617C48.5348 41.3792 49.0708 39.061 49.0708 36.448C49.0574 30.4314 45.7342 25.1384 40.267 22.4048C39.2352 21.8956 37.4798 21.3328 36.113 21.0916C34.8132 20.8638 32.026 20.8638 30.753 21.105ZM34.7998 24.4014C40.669 25.058 45.158 29.6006 45.6672 35.4296C46.1898 41.3792 42.6656 46.565 36.917 48.3204C35.8048 48.6554 35.5234 48.6956 33.5 48.6956C31.4766 48.6956 31.1952 48.6554 30.083 48.3204C26.6526 47.2752 24.053 45.0642 22.512 41.8884C21.7616 40.334 21.4668 39.3022 21.3328 37.7076C21.1318 35.4296 21.4802 33.4464 22.4584 31.3694C24.4818 27.068 28.2874 24.5488 33.2052 24.2674C33.366 24.2674 34.0896 24.321 34.7998 24.4014Z" fill="#7001D7"/>
</svg>
