<svg width="98" height="66" viewBox="0 0 98 66" fill="none" xmlns="http://www.w3.org/2000/svg">
<path d="M22.2606 1.11172C20.1168 1.51367 18.8727 1.97305 17.2074 2.93008C9.8383 7.16016 4.24924 18.2617 1.35901 34.3398C0.401978 39.7184 0.114868 42.8 0.114868 47.7383C0.114868 52.6 0.306274 54.6098 1.09104 57.3086C2.8137 63.3188 7.00549 66.075 12.5754 64.8691C17.0543 63.9121 22.3563 60.5625 29.8785 53.959C32.7688 51.4133 34.2617 50.4754 36.9988 49.4418C45.2676 46.3027 57.5942 46.9918 64.2742 50.9539C65.0016 51.3941 66.7434 52.7531 68.1215 53.959C77.7301 62.4 84.0082 65.7113 89.1379 65.0223C93.636 64.4289 96.4113 60.9836 97.5406 54.5332C98.0192 51.8344 98.0192 44.3121 97.5598 40.4648C96.1434 28.7508 92.8512 17.6301 88.9465 11.3711C85.4629 5.82031 81.8071 2.68125 77.2324 1.37969C75.9309 1.01601 75.261 0.939453 72.7344 0.939453C69.3082 0.939453 68.3129 1.11172 60.4461 3.04492C54.2828 4.53789 51.1438 5.11211 49 5.11211C46.9137 5.11211 43.9852 4.59531 37.5922 3.06406C34.7594 2.39414 31.4481 1.64766 30.2422 1.43711C27.352 0.901169 24.0598 0.767189 22.2606 1.11172ZM31.2949 6.10742C32.5582 6.37539 34.9699 6.94961 36.6352 7.3707C44.1766 9.26562 47.7942 9.80156 50.7801 9.45703C53.6129 9.15078 55.4313 8.78711 60.6758 7.54297C68.4278 5.70547 69.2508 5.55234 72.1602 5.57148C74.4379 5.57148 74.9356 5.62891 76.2754 6.06914C80.4672 7.46641 83.5488 10.6246 86.5156 16.5391C89.425 22.3387 91.4348 29.5738 92.8703 39.3547C93.4254 43.202 93.502 52.1023 92.9852 54.4375C91.8559 59.6629 89.7887 61.4047 85.8649 60.4859C82.2281 59.6246 77.5961 56.6195 71.2031 50.9156C67.509 47.6426 65.4418 46.3027 62.1496 45.116C58.2641 43.7188 55.1633 43.1637 50.3399 43.0105C45.0571 42.8574 41.1524 43.3551 36.6543 44.8098C32.6731 46.0922 29.7828 47.8531 25.5528 51.6621C22.2989 54.5715 18.1262 57.6148 15.6953 58.8398C10.9867 61.2133 8.01995 61.041 6.37385 58.2848C5.60823 57.0023 5.24456 55.8539 4.86174 53.3848C4.44065 50.7816 4.59377 43.068 5.14885 39.1824C6.92893 26.4922 10.6996 15.8691 15.3699 10.4332C17.418 8.04063 20.2317 6.26055 22.8731 5.72461C24.8637 5.32265 28.443 5.47578 31.2949 6.10742Z" fill="#7001D7"/>
<path d="M25.3422 13.1129C23.9258 13.2852 22.3754 14.0699 21.3418 15.1035C20.404 16.0414 19.3321 18.032 19.3321 18.8551C19.3321 19.3719 19.0258 19.6016 18.3368 19.6016C18.1262 19.6016 17.418 19.8504 16.7481 20.1758C13.6856 21.6496 12.0778 24.9609 12.9008 28.1574C13.5899 30.8754 15.3317 32.6363 18.0688 33.3828C19.1981 33.7082 19.2364 33.7273 19.3704 34.4738C19.6957 36.3879 21.4184 38.5125 23.3707 39.393C27.0649 41.0965 31.4672 39.2398 32.9028 35.3926C33.1325 34.7992 33.3047 34.1676 33.3047 33.9762C33.3047 33.7082 33.4961 33.5934 34.0895 33.4977C36.1375 33.1723 38.2239 31.4879 39.2 29.4016C39.9082 27.9086 39.9465 25.3629 39.2766 23.9082C38.1664 21.4773 36.4438 20.0992 33.8598 19.525C33.4579 19.4293 33.3239 19.2762 33.2282 18.702C33.0368 17.5152 32.2711 16.118 31.2758 15.1227C29.7063 13.5531 27.5817 12.8258 25.3422 13.1129ZM27.6965 17.8023C28.5004 18.3 28.7493 18.9508 28.9024 20.8457C29.0938 23.4105 29.7063 24.0039 32.1563 24.0039C33.745 24.0039 34.4914 24.3102 35.0274 25.2098C35.7739 26.4156 35.3145 28.2148 34.1278 28.7891C33.8215 28.923 32.8645 29.0762 31.9649 29.1336C29.5149 29.2676 28.9024 29.8609 28.9024 32.1387C28.9024 34.3973 28.0219 35.4883 26.2036 35.4883C24.5766 35.4883 23.7344 34.3973 23.7344 32.3301C23.7344 29.8609 22.8922 28.9805 20.5188 28.9805C18.3176 28.9805 17.2266 28.1383 17.2266 26.4348C17.2266 24.8844 18.3368 24.0039 20.3274 23.9848C22.9305 23.9656 23.5813 23.334 23.7344 20.6543C23.8301 18.9891 23.8875 18.7977 24.4043 18.2617C25.304 17.3238 26.6438 17.1324 27.6965 17.8023Z" fill="#7001D7"/>
<path d="M68.4278 14.0125C65.4418 15.4098 65.193 19.6207 67.9875 21.4582C68.6766 21.9176 68.9637 21.9941 70.227 21.9941C71.4903 21.9941 71.7965 21.9176 72.4856 21.4582C72.945 21.1711 73.5383 20.5777 73.8254 20.1375C74.2848 19.4484 74.3614 19.1613 74.3614 17.8789C74.3614 16.5965 74.2848 16.3094 73.8254 15.6203C73.0024 14.3762 71.9688 13.7828 70.4567 13.7063C69.5188 13.668 68.9829 13.7445 68.4278 14.0125Z" fill="#7001D7"/>
<path d="M60.1973 22.4918C59.3168 22.7406 58.0918 23.8891 57.709 24.8078C56.5415 27.6789 58.4938 30.7223 61.4989 30.7223C63.3172 30.7223 64.6571 29.8992 65.3844 28.3297C66.15 26.6836 65.9204 25.0949 64.7336 23.7742C63.5469 22.4535 61.9008 21.9942 60.1973 22.4918Z" fill="#7001D7"/>
<path d="M77.2324 22.6449C74.993 23.6785 74.0742 26.1094 75.1078 28.3106C75.8734 29.9567 77.1176 30.7223 78.9551 30.7223C81.2328 30.7223 83.0895 28.8656 83.0895 26.6071C83.0895 24.7504 82.3238 23.5063 80.6777 22.7406C79.5293 22.1856 78.2852 22.1473 77.2324 22.6449Z" fill="#7001D7"/>
<path d="M68.9063 31.1816C65.0399 32.3875 65.1547 38.1105 69.0785 39.259C71.7582 40.0246 74.4379 38.0148 74.457 35.2394C74.457 33.4019 73.2129 31.6793 71.5094 31.1816C70.361 30.8371 70.0356 30.8371 68.9063 31.1816Z" fill="#7001D7"/>
</svg>
