<svg width="37" height="39" viewBox="0 0 37 39" fill="none" xmlns="http://www.w3.org/2000/svg">
<g clip-path="url(#clip0_37_24)">
<path d="M16.4962 1.22134C13.1568 1.66812 10.2556 2.94146 7.57711 5.12327C6.75616 5.78601 5.24644 7.3721 4.62029 8.22099C2.66532 10.8645 1.40606 13.992 0.953846 17.3057C0.807745 18.3928 0.786873 20.9842 0.91906 22.0341C1.28779 24.9755 2.19919 27.619 3.65324 29.9572C4.43941 31.2231 4.87075 31.789 5.82389 32.824C7.68842 34.8495 9.78254 36.3015 12.2732 37.3142C12.8855 37.56 13.0663 37.6047 13.3794 37.5823C13.6994 37.5525 13.7899 37.5079 13.9569 37.3068L14.1517 37.076V35.2814C14.1517 33.7251 14.1378 33.4942 14.0473 33.5315C13.7621 33.6432 12.6559 33.74 12.0297 33.7027C11.1601 33.6432 10.6522 33.4942 9.96343 33.1145C9.12856 32.6528 8.65547 32.0645 8.04324 30.739C7.46579 29.4657 7.01357 28.8551 6.29698 28.3338C5.45516 27.7232 5.31601 27.3732 5.8378 27.1796C6.06044 27.1052 6.21349 27.0977 6.58918 27.1647C7.52145 27.3286 8.39806 27.9987 9.05204 29.0561C9.66427 30.0614 10.2626 30.5976 11.0905 30.8954C11.8558 31.1709 13.129 31.089 13.9777 30.7018C14.1725 30.6199 14.2143 30.5454 14.3117 30.121C14.4717 29.4285 14.7013 28.9072 15.0283 28.4679L15.3205 28.0881L14.6456 27.9987C13.2333 27.7977 11.8001 27.3062 10.7009 26.6509C10.04 26.2488 8.81549 24.9829 8.46067 24.3277C7.64668 22.8384 7.26403 21.1406 7.26403 18.9662C7.26403 17.0823 7.65364 15.7717 8.61373 14.409L9.05204 13.7835L8.91289 13.3441C8.81549 13.0388 8.76679 12.6442 8.73896 11.974C8.70417 10.9389 8.77375 10.3656 9.04508 9.44966C9.24684 8.75714 9.30249 8.72735 10.1026 8.85394C11.0557 9.01032 12.3637 9.59859 13.602 10.4177L14.1447 10.7751L14.6526 10.6336C16.8928 10.0081 20.1001 10.0081 22.5142 10.6336L23.0569 10.7677L23.4117 10.5145C23.9892 10.0975 25.2693 9.40498 25.9093 9.16669C26.5842 8.91351 27.4678 8.74969 27.746 8.82416C27.8991 8.86139 27.9478 8.95819 28.0939 9.44966C28.1913 9.76985 28.3026 10.2539 28.3513 10.5294C28.4557 11.1996 28.4 12.7038 28.24 13.3218L28.1148 13.8133L28.4974 14.342C29.5967 15.8685 30.035 17.6035 29.875 19.8374C29.5897 23.8958 28.073 26.1893 24.9075 27.3881C24.2953 27.619 22.9734 27.9317 22.2012 28.036L21.8046 28.0807L22.0551 28.3785C22.1942 28.5423 22.4099 28.9221 22.5421 29.2125C22.9525 30.1508 22.9873 30.5305 22.9873 33.9261C22.9873 36.793 22.9943 36.9792 23.1195 37.1951C23.2795 37.4706 23.6552 37.6344 24.0239 37.5749C24.4275 37.5153 25.5893 37.0313 26.6399 36.4802C30.0002 34.7154 32.8179 31.7518 34.4945 28.2221C35.4477 26.2116 36.0043 24.2904 36.2895 22.0341C36.4147 21.0214 36.3939 18.3258 36.2547 17.3205C35.4825 11.8921 32.8039 7.34976 28.5879 4.3265C26.4311 2.77764 23.8848 1.72769 21.248 1.28835C20.2392 1.12453 17.4981 1.07985 16.4962 1.22134Z" fill="#EE1135"/>
</g>
<defs>
<clipPath id="clip0_37_24">
<rect width="35.6209" height="38.1258" fill="white" transform="translate(0.793823 0.290527)"/>
</clipPath>
</defs>
</svg>
