<svg width="86" height="34" viewBox="0 0 86 34" fill="none" xmlns="http://www.w3.org/2000/svg">
<path d="M17.194 0.495197C15.952 1.2128 15.9796 0.936798 15.952 16.8068V31.9316L16.642 32.594C17.2492 33.2288 17.4976 33.284 20.0092 33.284C22.8244 33.2564 23.3212 33.0908 23.9008 31.9868C24.1492 31.5452 24.232 27.3224 24.232 16.586V1.7648L23.4316 0.964397C22.6588 0.191597 22.5208 0.163998 20.1748 0.163998C18.85 0.163998 17.4976 0.329597 17.194 0.495197Z" fill="#7001D7"/>
<path d="M62.7339 0.495197C61.4919 1.2128 61.5195 0.936798 61.4919 16.7516V31.8212L62.1819 32.5664C62.8167 33.2564 62.9823 33.284 65.6043 33.284C68.3367 33.284 68.3367 33.284 69.0543 32.4284L69.7719 31.5728V16.6688V1.7648L68.9715 0.964397C68.1987 0.191597 68.0607 0.163998 65.7147 0.163998C64.3899 0.163998 63.0375 0.329597 62.7339 0.495197Z" fill="#7001D7"/>
<path d="M7.25797 4.55241C6.95437 4.69041 6.45757 5.07681 6.15397 5.40801C5.62957 5.98761 5.60197 6.45681 5.51917 16.0616C5.46397 22.2992 5.54677 26.4944 5.71237 27.1292C6.12637 28.6472 7.11997 29.144 9.74197 29.144C12.4192 29.144 13.33 28.7024 13.744 27.2396C13.9096 26.6048 13.9924 22.4096 13.9372 16.0892L13.882 5.96001L13.1092 5.21481C12.4192 4.49721 12.1432 4.44201 10.0732 4.38681C8.83117 4.33161 7.56157 4.41441 7.25797 4.55241Z" fill="#7001D7"/>
<path d="M73.1944 4.69041C72.6424 4.93881 72.2284 5.40801 72.0076 5.96001C71.5936 7.20201 71.5936 26.2184 72.0076 27.4604C72.4492 28.73 73.498 29.144 76.0924 29.144C78.1624 29.144 78.3832 29.0888 79.2112 28.3436L80.122 27.5432V16.7516V5.96001L79.3492 5.21481C78.6592 4.49721 78.3832 4.44201 76.3132 4.35921C74.8228 4.33161 73.7464 4.44201 73.1944 4.69041Z" fill="#7001D7"/>
<path d="M0.606372 12.6668C0.551172 12.86 0.523572 14.8196 0.551172 17L0.633972 21.002L2.09677 21.0848L3.53197 21.1676V16.7516V12.308H2.15197C1.26877 12.308 0.716772 12.446 0.606372 12.6668Z" fill="#7001D7"/>
<path d="M82.192 16.724V21.14H83.848H85.5316L85.4488 16.7792L85.366 12.446L83.7928 12.3632L82.192 12.2804V16.724Z" fill="#7001D7"/>
<path d="M26.44 16.724V19.76L42.862 19.7048L59.3116 19.622L59.3392 16.724L59.3944 13.826L42.9172 13.7432L26.44 13.688V16.724Z" fill="#7001D7"/>
</svg>
