<svg width="36" height="39" viewBox="0 0 36 39" fill="none" xmlns="http://www.w3.org/2000/svg">
<g clip-path="url(#clip0_37_27)">
<path d="M16.3233 0.0744896C7.18339 1.04253 0.219361 9.62827 0.512655 19.5842C0.601326 22.4808 1.17427 24.9903 2.34063 27.5444C4.03901 31.2825 6.75368 34.2462 10.1845 36.1078C15.7435 39.1311 22.3187 38.7141 27.5025 35.0132C29.5283 33.5686 31.4518 31.424 32.7614 29.1454C33.2661 28.2816 34.0164 26.5987 34.3574 25.586C34.7053 24.5584 35.1077 22.7861 35.251 21.6319C35.4078 20.4628 35.4283 17.7523 35.2919 16.7173C34.8895 13.627 33.9891 10.991 32.4954 8.53365C31.8678 7.49114 31.2335 6.64225 30.3468 5.66677C27.6253 2.66585 24.2422 0.804241 20.3748 0.178738C19.5427 0.0447006 17.1963 -0.0148697 16.3233 0.0744896ZM11.4941 9.12191C12.1762 9.31552 12.7082 9.79954 13.0015 10.4921C13.2198 11.0133 13.1993 11.892 12.9606 12.4505C12.6059 13.277 11.9375 13.7685 11.0917 13.8355C10.1914 13.9025 9.46154 13.4632 9.02501 12.5845C8.79992 12.1377 8.77946 12.0558 8.77946 11.4675C8.77946 10.7378 8.91587 10.3357 9.32512 9.83677C9.6457 9.44956 9.92535 9.2634 10.3892 9.12936C10.8666 8.98788 11.0235 8.98788 11.4941 9.12191ZM24.1194 15.5631C25.4427 15.928 26.2543 16.7471 26.7113 18.1768C27.0865 19.3533 27.1069 19.6214 27.141 24.5509L27.1751 29.1156H25.2653H23.3487L23.3282 25.035C23.3009 21.0362 23.3009 20.9543 23.144 20.4554C22.8439 19.465 22.3324 19.0704 21.357 19.0629C20.1429 19.0629 19.5631 19.5469 19.1948 20.8724C19.1061 21.2 19.0857 21.8851 19.0652 25.1839L19.0379 29.1156H17.1622H15.2933V22.4138V15.712H17.1008H18.9083L18.9152 16.6205V17.5364L19.0652 17.313C19.7678 16.2779 20.634 15.6748 21.739 15.4439C22.346 15.3174 23.4373 15.3695 24.1194 15.5631ZM12.8924 22.3915L12.8719 29.0784L10.9826 29.1007L9.08639 29.1156V22.4138V15.712H10.9962H12.906L12.8924 22.3915Z" fill="#EE1135"/>
</g>
<defs>
<clipPath id="clip0_37_27">
<rect width="34.9225" height="38.1258" fill="white" transform="translate(0.492188)"/>
</clipPath>
</defs>
</svg>
