<svg width="92" height="66" viewBox="0 0 92 66" fill="none" xmlns="http://www.w3.org/2000/svg">
<path d="M29.3819 46H20.0219V17.92H30.1019C38.0219 17.92 42.9019 22.28 42.9019 31.44C42.9019 41.84 36.3819 46 29.3819 46ZM24.0219 18.52V45.4H27.5819C34.4219 45.4 38.9019 42.4 38.9019 31.44C38.9019 22.4 35.5419 18.48 28.2619 18.52H24.0219ZM62.4791 46.6C53.7991 46.6 47.0391 41.16 47.0391 31.48C47.0391 22.4 53.9991 17.36 62.7591 17.36C65.7191 17.36 68.9191 17.92 72.0791 19.12L71.8791 21.92C68.2791 19.24 64.7591 18 61.6791 18C55.5591 18 51.0391 22.68 51.0391 31.48C51.0391 40.68 56.4791 46 63.1591 46C64.9191 46 66.7591 45.56 68.5991 44.64V31.32H72.5991V44.36C69.1191 45.84 65.6791 46.6 62.4791 46.6Z" fill="#EE1135"/>
<rect x="1" y="1" width="90" height="64" rx="19" stroke="#EE1135" stroke-width="2"/>
</svg>
